<?xml version="1.0" encoding="utf-8"?>
<!-- Generator: Adobe Illustrator 27.5.0, SVG Export Plug-In . SVG Version: 6.00 Build 0)  -->
<svg version="1.1" id="Layer_1" xmlns="http://www.w3.org/2000/svg" xmlns:xlink="http://www.w3.org/1999/xlink" x="0px" y="0px"
	 viewBox="0 0 4000 4000" style="enable-background:new 0 0 4000 4000;" xml:space="preserve">
<g>
	<g>
		<rect x="0" y="0" style="fill:#BE80FF;" width="4000" height="4000"/>
	</g>
	<g>
		<g>
			<path style="fill:#FFFFFF;" d="M1366.232,3508.502c0,0-25.695,8.157-59.096,9.543c-1.128,43.782-9.64,77.828-9.64,77.828
				s-8.512-34.046-9.64-77.828c-33.401-1.386-59.096-9.543-59.096-9.543s25.696-8.157,59.096-9.543
				c1.128-43.75,9.64-77.796,9.64-77.796s8.511,34.046,9.64,77.796C1340.536,3500.345,1366.232,3508.502,1366.232,3508.502z"/>
		</g>
		<g>
			<path style="fill:#FFFFFF;" d="M3537.674,1455.571c0,0-25.695,8.157-59.096,9.543c-1.128,43.782-9.64,77.828-9.64,77.828
				s-8.511-34.046-9.64-77.828c-33.401-1.386-59.096-9.543-59.096-9.543s25.696-8.157,59.096-9.543
				c1.128-43.75,9.64-77.796,9.64-77.796s8.511,34.046,9.64,77.796C3511.979,1447.415,3537.674,1455.571,3537.674,1455.571z"/>
		</g>
		<g>
			<path style="fill:#FFFFFF;" d="M3675.146,2360.54c0,0-25.695,8.157-59.096,9.543c-1.128,43.782-9.64,77.828-9.64,77.828
				s-8.511-34.046-9.64-77.828c-33.401-1.386-59.096-9.543-59.096-9.543s25.695-8.157,59.096-9.543
				c1.128-43.75,9.64-77.795,9.64-77.795s8.511,34.045,9.64,77.795C3649.451,2352.383,3675.146,2360.54,3675.146,2360.54z"/>
		</g>
		<g>
			<path style="fill:#FFFFFF;" d="M602.839,1432.184c0,0-25.695,8.157-59.096,9.543c-1.128,43.782-9.64,77.828-9.64,77.828
				s-8.511-34.046-9.64-77.828c-33.401-1.386-59.096-9.543-59.096-9.543s25.695-8.156,59.096-9.543
				c1.128-43.75,9.64-77.796,9.64-77.796s8.512,34.046,9.64,77.796C577.143,1424.028,602.839,1432.184,602.839,1432.184z"/>
		</g>
		<g>
			<path style="fill:#FFFFFF;" d="M1052.94,2063.715c0,0-20.201,6.413-46.461,7.503c-0.887,34.421-7.579,61.188-7.579,61.188
				s-6.692-26.766-7.579-61.188c-26.259-1.09-46.461-7.503-46.461-7.503s20.202-6.413,46.461-7.503
				c0.887-34.396,7.579-61.162,7.579-61.162s6.692,26.766,7.579,61.162C1032.739,2057.302,1052.94,2063.715,1052.94,2063.715z"/>
		</g>
		<g>
			<path style="fill:#FFFFFF;" d="M544.767,3147.477c0,0-20.201,6.413-46.461,7.503c-0.887,34.421-7.579,61.188-7.579,61.188
				s-6.692-26.766-7.579-61.188c-26.259-1.09-46.461-7.503-46.461-7.503s20.202-6.413,46.461-7.502
				c0.887-34.396,7.579-61.162,7.579-61.162s6.692,26.766,7.579,61.162C524.565,3141.064,544.767,3147.477,544.767,3147.477z"/>
		</g>
		<g>
			<path style="fill:#FFFFFF;" d="M1481.571,789.174c0,0-20.201,6.413-46.461,7.503c-0.887,34.421-7.579,61.187-7.579,61.187
				s-6.692-26.766-7.579-61.187c-26.259-1.09-46.461-7.503-46.461-7.503s20.202-6.413,46.461-7.503
				c0.887-34.396,7.579-61.162,7.579-61.162s6.692,26.766,7.579,61.162C1461.37,782.762,1481.571,789.174,1481.571,789.174z"/>
		</g>
		<g>
			<path style="fill:#FFFFFF;" d="M2059.501,472.792c0,0-20.201,6.413-46.461,7.503c-0.887,34.421-7.579,61.187-7.579,61.187
				s-6.692-26.766-7.579-61.187c-26.259-1.09-46.461-7.503-46.461-7.503s20.202-6.413,46.461-7.503
				c0.887-34.396,7.579-61.162,7.579-61.162s6.692,26.766,7.579,61.162C2039.3,466.379,2059.501,472.792,2059.501,472.792z"/>
		</g>
		<g>
			<path style="fill:#FFFFFF;" d="M805.081,662.912c0,0-20.201,6.413-46.461,7.503c-0.887,34.421-7.579,61.187-7.579,61.187
				s-6.692-26.766-7.579-61.187c-26.259-1.09-46.461-7.503-46.461-7.503s20.202-6.413,46.461-7.503
				c0.887-34.396,7.579-61.162,7.579-61.162s6.692,26.766,7.579,61.162C784.88,656.499,805.081,662.912,805.081,662.912z"/>
		</g>
		<g>
			<path style="fill:#FFFFFF;" d="M404.088,2564.282c0,0-20.201,6.413-46.461,7.503c-0.887,34.421-7.579,61.187-7.579,61.187
				s-6.692-26.766-7.579-61.187c-26.259-1.09-46.461-7.503-46.461-7.503s20.201-6.413,46.461-7.502
				c0.887-34.396,7.579-61.162,7.579-61.162s6.692,26.766,7.579,61.162C383.887,2557.869,404.088,2564.282,404.088,2564.282z"/>
		</g>
		<g>
			<path style="fill:#FFFFFF;" d="M1237.794,1453.783c0,0-20.201,6.413-46.461,7.503c-0.887,34.421-7.579,61.188-7.579,61.188
				s-6.692-26.766-7.579-61.188c-26.259-1.09-46.461-7.503-46.461-7.503s20.202-6.413,46.461-7.503
				c0.887-34.396,7.579-61.162,7.579-61.162s6.692,26.766,7.579,61.162C1217.593,1447.37,1237.794,1453.783,1237.794,1453.783z"/>
		</g>
		<g>
			<path style="fill:#FFFFFF;" d="M2928.427,3454.268c0,0-20.201,6.413-46.461,7.503c-0.887,34.421-7.579,61.187-7.579,61.187
				s-6.691-26.766-7.579-61.187c-26.259-1.09-46.461-7.503-46.461-7.503s20.202-6.413,46.461-7.503
				c0.887-34.396,7.579-61.162,7.579-61.162s6.692,26.766,7.579,61.162C2908.225,3447.855,2928.427,3454.268,2928.427,3454.268z"/>
		</g>
		<g>
			<path style="fill:#FFFFFF;" d="M3188.399,2756.248c0,0-20.201,6.413-46.461,7.503c-0.887,34.421-7.579,61.188-7.579,61.188
				s-6.692-26.766-7.579-61.188c-26.26-1.09-46.461-7.503-46.461-7.503s20.201-6.413,46.461-7.503
				c0.887-34.396,7.579-61.162,7.579-61.162s6.692,26.766,7.579,61.162C3168.197,2749.835,3188.399,2756.248,3188.399,2756.248z"/>
		</g>
		<g>
			<path style="fill:#FFFFFF;" d="M3400.202,900.493c0,0-20.201,6.413-46.461,7.503c-0.887,34.421-7.579,61.187-7.579,61.187
				s-6.692-26.766-7.579-61.187c-26.259-1.09-46.461-7.503-46.461-7.503s20.202-6.413,46.461-7.503
				c0.887-34.396,7.579-61.162,7.579-61.162s6.692,26.766,7.579,61.162C3380.001,894.08,3400.202,900.493,3400.202,900.493z"/>
		</g>
		<g>
			<path style="fill:#FFFFFF;" d="M2919.885,1507.849c0,0-20.201,6.413-46.461,7.503c-0.887,34.421-7.579,61.188-7.579,61.188
				s-6.692-26.766-7.579-61.188c-26.26-1.09-46.461-7.503-46.461-7.503s20.201-6.413,46.461-7.503
				c0.887-34.396,7.579-61.162,7.579-61.162s6.692,26.766,7.579,61.162C2899.684,1501.436,2919.885,1507.849,2919.885,1507.849z"/>
		</g>
		<g>
			<path style="fill:#FFFFFF;" d="M2969.978,519.327c0,0-20.201,6.413-46.461,7.503c-0.887,34.421-7.579,61.187-7.579,61.187
				s-6.692-26.766-7.579-61.187c-26.26-1.09-46.461-7.503-46.461-7.503s20.201-6.413,46.461-7.503
				c0.887-34.396,7.579-61.162,7.579-61.162s6.692,26.766,7.579,61.162C2949.777,512.914,2969.978,519.327,2969.978,519.327z"/>
		</g>
		<g>
			<path style="fill:#FFFFFF;" d="M3703.991,3063.544c0,0-20.201,6.413-46.461,7.503c-0.887,34.421-7.579,61.188-7.579,61.188
				s-6.692-26.766-7.579-61.188c-26.26-1.09-46.461-7.503-46.461-7.503s20.201-6.413,46.461-7.503
				c0.887-34.396,7.579-61.162,7.579-61.162s6.692,26.766,7.579,61.162C3683.79,3057.131,3703.991,3063.544,3703.991,3063.544z"/>
		</g>
	</g>
	<g>
		<g>
			<g>
				<path style="fill:#FFCE00;" d="M3304.4,1822.95C3283.5,4104.15-27,3360.35,867.55,1423.2c27.9,99.95,60.1,191.95,96.05,276.35
					c455,1066.5,1515.25,916.5,2094.6,259.5V1959c56.55-64.05,108.45-132.9,154.75-205.9c6.1-9.55,14.6-17.5,25.05-21.85
					c24.15-10.05,42.9,1.9,56.3,35.7C3301.35,1784.75,3304.6,1803.85,3304.4,1822.95z"/>
			</g>
			<g>
				<path style="fill:#FFAE1F;" d="M786,1677.55l177.6,22c455,1066.5,1515.25,916.5,2094.6,259.5
					C3078.75,3912.7,305.35,3251.95,786,1677.55z"/>
			</g>
			<g>
				<path style="fill:#FFCE00;" d="M2373.913,3022.622c0.104,8.991-3.558,17.728-11.425,25.818
					c-35.921,36.976-144.578,46.524-242.796,21.274c-98.167-25.227-148.677-75.69-112.854-112.659
					c14.815-15.241,41.984-25.826,75.727-31.202c0.036,32.022,47.656,67.107,124.324,86.811
					C2264.595,3027.507,2325.861,3030.338,2373.913,3022.622z"/>
			</g>
			<g>
				<path style="fill:#FFCE00;" d="M1561.366,2914.659c-4.784,3.661-10.269,6.634-16.365,8.732
					c-27.766,9.557-57.184-2.881-65.739-27.737c-4.454-12.941-2.401-26.696,4.53-38.256c16.478-13.358,34.666-21.479,54.363-25.035
					c-6.814,3.616-13.398,7.99-19.724,13.112c-6.931,11.56-8.984,25.315-4.53,38.256
					C1520.576,2903.128,1539.997,2914.978,1561.366,2914.659z"/>
			</g>
			<g>
				<path style="fill:#FFCE00;" d="M3150.188,1938.733c-22.028,19.542-30.488,52.469-33.862,90.4
					c0.381,1.856,0.838,3.681,1.346,5.464c-12.702-5.033-21.36-17.961-24.699-34.562c3.374-37.931,11.834-70.858,33.862-90.4
					c10.75-7.459,22.56-10.343,33.538-7.011c12.594,3.805,21.602,15.033,25.899,30.005c-0.834-0.36-1.665-0.654-2.545-0.907
					C3172.747,1928.39,3160.938,1931.274,3150.188,1938.733z"/>
			</g>
			<g>
				<path style="fill:#FFCE00;" d="M3023.461,2391.781c-22.133,60.055-25.866,116.319-13.418,153.175
					c-49.072-13.393-60.57-99.41-25.292-195.213c20.662-56.086,52.889-103.366,86.404-131.644
					c44.608-27.969,99.341-9.734,117.668,36.649c-23.613-11.511-52.998-10.916-78.958,5.389
					C3076.35,2288.414,3044.123,2335.694,3023.461,2391.781z"/>
			</g>
			<g>
				<path style="fill:#FFCE00;" d="M1114.855,2594.652c39.228,50.573,84.98,83.531,122.837,92.486
					c-37.345,34.538-116.402-1.253-178.995-81.906c-36.639-47.225-59.684-99.597-65.928-143.001
					c-0.107-52.651,44.341-89.427,93.393-80.416c-22.267,13.936-37.322,39.179-37.234,69.835
					C1055.171,2495.055,1078.216,2547.427,1114.855,2594.652z"/>
			</g>
			<g>
				<path style="fill:#FFCE00;" d="M821.824,1953.9c-3.5,3.219-7.603,5.716-12.251,7.316c-21.17,7.287-45.248-6.989-53.804-31.846
					c-4.454-12.941-3.843-26.2,0.77-36.962c12.001-11.817,25.732-18.403,40.985-20.43c-5.102,3.027-9.968,6.809-14.576,11.34
					c-4.614,10.762-5.225,24.021-0.77,36.962C788.856,1939.677,805.018,1952.649,821.824,1953.9z"/>
			</g>
			<g>
				<path style="fill:#371A45;" d="M2030.645,3250.287c-384.553,0.024-772.615-151.602-1030.764-425.547
					c-158.85-168.569-259.58-376.348-291.301-600.879c-35.659-252.419,12.659-524.187,143.613-807.752
					c2.979-6.445,9.626-10.351,16.741-9.783c7.08,0.569,13.052,5.493,14.961,12.336c166.37,596.516,509.187,962.151,965.3,1029.548
					c49.409,7.3,99.561,10.864,150.066,10.864c446.191,0.01,922.166-278.091,1199.404-715.042
					c8.323-13.118,19.67-22.949,32.815-28.428c14.36-5.984,27.981-6.345,40.486-1.077c15.955,6.724,28.411,21.824,38.079,46.162
					c7.7,19.377,11.499,40.381,11.299,62.429c-3.188,348.201-82.197,644.08-234.836,879.426
					c-134.895,207.988-329.021,366.03-561.392,457.036C2368.619,3220.873,2199.935,3250.277,2030.645,3250.287z M864.119,1472.326
					c-299.504,688.728-29.937,1127.17,160.422,1329.177c251.765,267.168,630.413,415.054,1005.557,415.068
					c165.291,0.01,329.849-28.691,482.661-88.54c285.889-111.968,766.692-430.425,774.7-1305.222
					c0.161-17.637-2.834-34.326-8.904-49.607c-5.886-14.812-12.898-24.558-19.749-27.446c-2.476-1.038-6.646-2.058-14.29,1.13
					c-6.697,2.791-12.659,8.081-17.239,15.303c-151.807,239.255-370.43,442.283-615.598,571.682
					c-253,133.53-518.374,184.668-767.439,147.861c-222-32.803-418.443-132.993-583.867-297.783
					C1086.771,2011.01,953.585,1771.767,864.119,1472.326z"/>
			</g>
		</g>
		<g>
			<g>
				<g>
					<path style="fill:#FFFFFF;" d="M1435.214,2125.271l-182.796,175.617c-29.254,28.105-36.768,72.095-18.237,108.183
						c149.939,292.006,629.37,624.208,864.975,360.014l238.257-262.101L1435.214,2125.271z"/>
				</g>
				<g>
					<path style="fill:#FFFFFF;" d="M2036.68,2822.315c72.936-90.365,57.454-177.014-83.71-258.38l-294.054-108.634
						c-65.146-24.067-124.219-62.099-173.343-111.191c-69.587-69.542-137.748-111.851-201.681-73.458"/>
				</g>
				<g>
					<path style="fill:#371A45;" d="M1878.658,2882.309c-16.699,0-33.828-1.113-51.355-3.35
						c-245.156-31.289-506.579-264.253-608.193-462.148c-21.748-42.354-12.876-95.044,21.57-128.14l182.798-175.615
						c4.885-4.692,12.104-6.016,18.34-3.389l902.197,381.714c5.059,2.144,8.767,6.602,9.946,11.968s-0.315,10.972-4.011,15.034
						l-238.257,262.1C2051.846,2847.592,1971.983,2882.309,1878.658,2882.309z M1438.9,2145.229l-174.744,167.876
						c-23.738,22.808-29.866,59.087-14.905,88.228c98.103,191.055,355.513,415.063,582.341,444.014
						c105.361,13.438,191.128-16.001,254.919-87.534l222.285-244.536L1438.9,2145.229z"/>
				</g>
				<g>
					<path style="fill:#371A45;" d="M2036.671,2839.257c-3.738,0-7.498-1.23-10.632-3.76c-7.28-5.879-8.418-16.543-2.542-23.823
						c31.511-39.043,43.765-74.463,37.456-108.276c-7.949-42.617-46.714-84.36-115.21-124.072l-292.698-108.13
						c-66.706-24.644-128.76-64.443-179.448-115.103c-77.639-77.583-133.455-99.453-180.982-70.913
						c-8.022,4.81-18.433,2.217-23.247-5.806c-4.819-8.018-2.222-18.428,5.801-23.247c81.929-49.194,166.155,19.814,222.38,76.001
						c47.256,47.222,105.085,84.321,167.239,107.28l294.053,108.633c0.896,0.332,1.763,0.737,2.59,1.216
						c79.346,45.732,122.795,94.121,132.832,147.925c8.12,43.53-6.816,89.209-44.399,135.771
						C2046.517,2837.104,2041.615,2839.257,2036.671,2839.257z"/>
				</g>
				<g style="opacity:0.2;">
					<path style="fill:#371A45;" d="M2337.413,2506.983l-238.257,262.104c-19.272,21.644-40.239,39.265-62.476,53.243
						c72.938-90.389,57.436-177.009-83.697-258.376L1658.9,2455.307c-65.145-24.058-124.19-62.094-173.324-111.186
						c-69.592-69.55-137.702-111.864-201.66-73.489l151.298-145.369L2337.413,2506.983z"/>
				</g>
				<g style="opacity:0.2;">
					<path style="fill:#371A45;" d="M1452.157,2311.634c262.612,247.787-146.131,338.539-203.312,0
						c-71.396,34.803-49.317,128.269,224.426,379.676c168.048,124.428,325.207,196.809,461.512,169.519
						c-148.888-46.698-61.176-261.161,64.836-250.58C1871.031,2485.3,1515.692,2451.411,1452.157,2311.634z"/>
				</g>
			</g>
			<g>
				<g>
					<path style="fill:#FFFFFF;" d="M2099.156,1742.182c34.022-128.023,87.739-111.887,209.043-32.014L2099.156,1742.182z"/>
				</g>
				<g>
					<polygon style="fill:#FFFFFF;" points="2261.246,1822.247 2621.341,1959.014 2550.884,2258.688 2149.631,2126.293 					"/>
				</g>
				<g style="opacity:0.2;">
					<polygon style="fill:#371A45;" points="2261.246,1822.247 2621.341,1959.014 2550.884,2258.688 2149.631,2126.293 					"/>
				</g>
				<g>
					<path style="fill:#371A45;" d="M2099.154,1759.125c-4.768,0-9.365-2.017-12.605-5.625c-3.818-4.255-5.234-10.146-3.767-15.669
						c15.718-59.143,36.135-90.63,66.199-102.097c40.999-15.625,90.85,9.131,168.535,60.283c5.857,3.855,8.733,10.918,7.236,17.769
						c-1.497,6.848-7.058,12.068-13.987,13.13l-209.043,32.014C2100.865,1759.059,2100.006,1759.125,2099.154,1759.125z
						 M2174.913,1665.036c-5.066,0-9.68,0.767-13.855,2.358c-14.7,5.605-27.18,23.342-37.886,53.97l137.834-21.108
						C2224.547,1678.205,2195.904,1665.036,2174.913,1665.036z"/>
				</g>
			</g>
			<g>
				<g>
					<path style="fill:#FFFFFF;" d="M2714.388,2337.81c-61.459-13.13-114.236-53.411-142.149-109.746
						c-41.594-84.079-39.688-175.23-21.348-269.05l-145.326-49.557l-41.001-13.978l42.696-56.25l51.336-67.644l48.244-63.535
						c203.524-65.314,383.328-31.895,383.328,161.422c111.822-22.365,169.427,38.884,180.821,124.232
						C3092.083,2150.848,2956.457,2389.57,2714.388,2337.81z"/>
				</g>
				<g>
					<path style="fill:#371A45;" d="M2780.028,2361.874c-22.542,0-45.662-2.476-69.192-7.505
						c-66.489-14.209-123.97-58.608-153.762-118.774c-36.279-73.262-44.475-157.871-25.525-265.273l-172.468-58.809
						c-5.151-1.755-9.146-5.881-10.735-11.087c-1.589-5.205-0.581-10.857,2.71-15.193l142.29-187.427
						c2.102-2.769,5.005-4.824,8.315-5.889c141.631-45.464,259.224-41.621,331.118,10.806
						c44.866,32.717,69.612,82.095,73.721,146.956c67.085-8.218,120.901,13.254,152.854,61.487
						c51.006,76.995,36.775,212.388-33.103,314.937C2966.048,2314.457,2878.665,2361.869,2780.028,2361.874z M2392.242,1887.021
						l164.111,55.957c8.018,2.732,12.783,10.969,11.16,19.282c-21.123,108.154-14.978,187.813,19.927,258.296
						c25.242,50.977,74.019,88.613,130.476,100.679c112.344,24.004,214.517-17.622,280.332-114.214
						c62.568-91.821,76.694-210.967,32.856-277.139c-27.297-41.206-74.89-56.353-137.61-43.796
						c-4.983,0.994-10.139-0.293-14.065-3.511s-6.204-8.027-6.204-13.103c0-63.245-20.325-110.137-60.413-139.37
						c-61.191-44.629-168.782-47.312-295.73-7.527L2392.242,1887.021z"/>
				</g>
				<g>
					<path style="fill:#371A45;" d="M2550.887,1975.961c-1.726,0-3.481-0.266-5.215-0.828c-8.904-2.878-13.787-12.429-10.908-21.333
						c28.235-87.329,63.066-149.805,106.487-191.004c51.016-48.398,115.234-67.788,190.894-57.646
						c9.275,1.245,15.784,9.771,14.539,19.045c-1.248,9.272-9.802,15.793-19.045,14.538
						c-124.438-16.694-204.812,52.849-260.632,225.491C2564.686,1971.396,2558.038,1975.961,2550.887,1975.961z"/>
				</g>
				<g>
					<path style="fill:#371A45;" d="M2704.515,1970.495c-4.91,0-9.78-2.124-13.13-6.223c-5.92-7.244-4.846-17.917,2.4-23.84
						c63.972-52.278,129.524-81.829,194.834-87.832c9.297-0.85,17.566,6.003,18.423,15.322c0.854,9.316-6.003,17.566-15.322,18.423
						c-58.462,5.373-117.844,32.4-176.494,80.327C2712.078,1969.242,2708.284,1970.495,2704.515,1970.495z"/>
				</g>
				<g>
					<path style="fill:#371A45;" d="M2813.214,2350.727c-31.758,0-60.339-9.248-83.499-27.48
						c-37.275-29.341-55.237-77.832-50.576-136.538c4.458-56.172,29.307-115.552,69.966-167.202
						c40.659-51.651,92.544-89.746,146.096-107.268c55.972-18.32,107.322-12.246,144.6,17.1
						c37.273,29.341,55.234,77.832,50.574,136.541c-4.458,56.167-29.309,115.552-69.963,167.197l0,0
						c-40.659,51.65-92.544,89.751-146.096,107.275C2853.116,2347.284,2832.572,2350.727,2813.214,2350.727z M2956.134,1935.788
						c-15.769,0-32.715,2.869-50.393,8.655c-47.271,15.466-93.442,49.568-130.01,96.023c-36.57,46.458-58.877,99.343-62.813,148.923
						c-3.735,47.046,9.675,85.127,37.756,107.236c28.083,22.095,68.25,26.201,113.101,11.519
						c47.271-15.469,93.442-49.57,130.01-96.025l0,0c36.57-46.455,58.875-99.346,62.81-148.926
						c3.735-47.041-9.673-85.125-37.754-107.229C3001.827,1942.57,2980.372,1935.788,2956.134,1935.788z"/>
				</g>
				<g>
					<path style="fill:#371A45;" d="M3073.594,2079.882c-2.288,0-4.612-0.469-6.838-1.45l-235.151-103.921
						c-8.56-3.784-12.432-13.789-8.647-22.346s13.792-12.429,22.344-8.65l235.151,103.921c8.56,3.784,12.432,13.789,8.647,22.349
						C3086.302,2076.112,3080.098,2079.882,3073.594,2079.882z"/>
				</g>
				<g>
					<path style="fill:#371A45;" d="M3040.318,2188.803c-2.112,0-4.258-0.4-6.335-1.235l-294.536-118.853
						c-8.677-3.501-12.874-13.374-9.373-22.051c3.501-8.679,13.379-12.869,22.053-9.372l294.536,118.85
						c8.677,3.501,12.874,13.374,9.373,22.051C3053.372,2184.794,3047.022,2188.803,3040.318,2188.803z"/>
				</g>
				<g>
					<path style="fill:#371A45;" d="M2956.021,2296.645c-2.178,0-4.39-0.425-6.526-1.313l-258.076-107.842
						c-8.633-3.608-12.708-13.535-9.099-22.168s13.525-12.69,22.166-9.102l258.076,107.842c8.633,3.608,12.708,13.535,9.099,22.168
						C2968.946,2292.729,2962.65,2296.645,2956.021,2296.645z"/>
				</g>
				<g style="opacity:0.2;">
					<path style="fill:#371A45;" d="M2714.388,2337.81c-61.459-13.13-114.236-53.411-142.149-109.746
						c-41.594-84.079-39.688-175.23-21.348-269.05l-145.326-49.557l1.694-70.228l51.336-67.644h198.103
						c-8.217,160.616,44.898,223.093,159.346,187.429c94.752-19.907,181.033-12.41,254.945,34.69
						C3092.083,2150.848,2956.457,2389.57,2714.388,2337.81z"/>
				</g>
			</g>
			<g>
				<g>
					<polygon style="fill:#FFFFFF;" points="2199.754,2171.856 2511.076,1895.479 2521.665,1801.235 2287.095,1771.585 
						1976.717,2062.935 					"/>
				</g>
				<g style="opacity:0.2;">
					<polygon style="fill:#371A45;" points="2170.104,2159.149 2481.426,1882.772 2492.015,1788.528 2257.445,1758.878 
						1947.067,2050.228 					"/>
				</g>
				<g>
					<path style="fill:#371A45;" d="M2199.752,2188.798c-2.527,0-5.068-0.566-7.432-1.719l-223.037-108.921
						c-5.005-2.446-8.489-7.192-9.319-12.695c-0.83-5.508,1.096-11.072,5.156-14.883l310.379-291.348
						c3.684-3.457,8.706-5.103,13.721-4.456l234.57,29.648c9.194,1.162,15.747,9.492,14.712,18.701l-10.591,94.243
						c-0.466,4.16-2.458,7.998-5.588,10.779l-311.321,276.377C2207.835,2187.338,2203.814,2188.798,2199.752,2188.798z
						 M2006.214,2058.483l190.779,93.167l297.971-264.526l7.998-71.174l-210.083-26.555L2006.214,2058.483z"/>
				</g>
				<g>
					<path style="fill:#371A45;" d="M2274.066,2122.812c-8.389,0-15.674-6.226-16.78-14.771l-12.842-99.202
						c-0.767-5.911,1.631-11.787,6.309-15.479l260.42-205.43c7.349-5.791,18-4.534,23.796,2.81c5.793,7.346,4.536,18-2.81,23.796
						l-252.878,199.478l11.609,89.68c1.201,9.277-5.347,17.773-14.626,18.975
						C2275.526,2122.768,2274.791,2122.812,2274.066,2122.812z"/>
				</g>
			</g>
			<g>
				<g>
					<path style="fill:#56BFDB;" d="M2243.371,1464.266l83.533,385.819c2.837,13.102,14.427,22.451,27.832,22.451h30.681
						l175.378-100.048c20.915-11.931,31.891-35.872,27.281-59.506l-81.236-416.498l-49.448-4.6
						c-7.256-0.675-14.507,1.338-20.376,5.656l-180.917,133.082C2245.596,1438.348,2240.612,1451.522,2243.371,1464.266z"/>
				</g>
				<g>
					<path style="fill:#50D1EF;" d="M2560.802,1772.474l-170.062,96.997l-5.337,3.05h-30.666c-13.385,0-24.991-9.318-27.828-22.449
						l-83.528-385.828c-2.753-12.707,2.202-25.88,12.707-33.631l180.948-133.085c5.845-4.32,13.088-6.311,20.374-5.633l49.43,4.574
						l4.659,23.932l76.581,392.562C2592.697,1736.599,2581.727,1760.572,2560.802,1772.474z"/>
				</g>
				<g>
					<path style="fill:#56A9F4;" d="M2560.802,1772.474l-170.062,96.997l-81.791-377.907c-2.753-12.707,2.202-25.88,12.707-33.631
						l180.948-133.085c2.711-1.991,5.718-3.516,8.895-4.448l76.581,392.562C2592.697,1736.599,2581.727,1760.572,2560.802,1772.474z
						"/>
				</g>
				<g>
					<path style="fill:#FDEAF6;" d="M2339.525,1475.153l50.129-39.084c10.915-8.51,26.976-2.902,30.221,10.553l19.08,79.114
						c1.783,7.392-1.003,15.137-7.086,19.699l-49.167,36.875c-10.83,8.123-26.439,2.668-29.853-10.432l-20.042-76.906
						C2330.889,1487.617,2333.53,1479.826,2339.525,1475.153z"/>
				</g>
				<g>
					<path style="fill:#371A45;" d="M2385.418,1889.479h-30.681c-21.228,0-39.897-15.061-44.392-35.808l-83.533-385.82
						c-4.165-19.238,3.389-39.209,19.246-50.876l180.918-133.081c9.224-6.785,20.581-9.929,31.985-8.879l49.448,4.6
						c7.488,0.696,13.621,6.245,15.059,13.625l81.238,416.499c6.006,30.791-8.267,61.921-35.515,77.466l-175.376,100.049
						C2391.256,1888.71,2388.363,1889.479,2385.418,1889.479z M2454.637,1308.698c-2.72,0-5.374,0.867-7.583,2.49l-180.916,133.081
						c-5.115,3.765-7.551,10.205-6.208,16.409c0,0.002,0.002,0.002,0.002,0.005l83.533,385.815c1.14,5.271,5.881,9.094,11.272,9.094
						h26.189l171.472-97.822c14.614-8.337,22.271-25.032,19.05-41.543l-78.811-404.048l-36.814-3.425
						C2455.428,1308.717,2455.032,1308.698,2454.637,1308.698z"/>
				</g>
				<g>
					<path style="fill:#371A45;" d="M2385.406,1885.246c-5.815,0-11.062-4.019-12.388-9.932l-87.966-392.456
						c-3.379-15.088,2.307-30.986,14.487-40.505l199.475-155.881c5.537-4.329,13.521-3.335,17.837,2.188
						c4.321,5.53,3.342,13.516-2.188,17.837l-199.475,155.881c-4.487,3.506-6.582,9.365-5.337,14.927l87.966,392.454
						c1.533,6.848-2.773,13.643-9.622,15.178C2387.261,1885.146,2386.326,1885.246,2385.406,1885.246z"/>
				</g>
				<g>
					<path style="fill:#371A45;" d="M2371.287,1594.596c-3.052,0-6.121-0.508-9.087-1.545c-8.672-3.03-15.232-10.146-17.551-19.036
						l-20.042-76.907c-2.771-10.637,1.04-21.877,9.709-28.635l50.127-39.085c7.405-5.776,17.117-7.378,25.989-4.277
						c8.867,3.096,15.474,10.396,17.676,19.526l19.082,79.111c2.578,10.693-1.44,21.865-10.239,28.464l-49.167,36.875
						C2382.95,1592.714,2377.154,1594.596,2371.287,1594.596z M2401.304,1440.495c-2.297,0-4.534,0.767-6.44,2.253l-50.129,39.084
						c-0.002,0-0.002,0-0.002,0c-3.33,2.598-4.792,6.917-3.728,11.003l20.042,76.907c0.903,3.467,3.362,6.133,6.743,7.315
						c3.381,1.182,6.963,0.63,9.829-1.523l49.167-36.875c3.381-2.534,4.924-6.829,3.936-10.938l-19.082-79.111
						c-0.859-3.562-3.335-6.296-6.792-7.505C2403.675,1440.697,2402.481,1440.495,2401.304,1440.495z M2339.525,1475.153h0.049
						H2339.525z"/>
				</g>
				<g>
					
						<ellipse transform="matrix(0.9792 -0.203 0.203 0.9792 -254.7961 511.1806)" style="fill:#371A45;" cx="2364.549" cy="1497.692" rx="14.662" ry="16.135"/>
				</g>
				<g>
					<path style="fill:#371A45;" d="M2391.026,1533.631c3.257,8.014-0.006,16.911-7.288,19.871
						c-7.282,2.96-15.827-1.138-19.084-9.153c-3.257-8.015,0.006-16.911,7.288-19.871
						C2379.225,1521.519,2387.769,1525.617,2391.026,1533.631z"/>
				</g>
			</g>
			<g>
				<g>
					<path style="fill:#FFFFFF;" d="M2524.942,1545.234c-15.003-17.856-25.807-37.227-30.474-58.81
						c-3.85-17.803,1.682-36.188,14.629-49c45.876-45.398,105.594-50.772,147.789-7.17c38.978,40.279,48.511,101.649,24.017,152.064
						c-10.487,21.586-25.562,39.795-42.847,50.93c-21.969,14.153-50.796,11.456-70.495-5.717
						c-16.714-14.571-27.232-33.48-31.042-57.086C2535.023,1561.16,2530.993,1552.435,2524.942,1545.234z"/>
				</g>
				<g style="opacity:0.2;">
					<path style="fill:#371A45;" d="M2680.904,1526.102c-10.487,21.586-25.562,39.795-42.846,50.93
						c-21.97,14.153-50.796,11.456-70.495-5.717c-16.714-14.57-27.231-33.48-31.041-57.086c-1.499-9.285-5.528-18.01-11.579-25.211
						c-10.521-12.522-18.915-25.811-24.638-40.063c-6.41,11.215-8.644,24.485-5.836,37.469c4.667,21.583,15.471,40.953,30.474,58.81
						c6.051,7.201,10.08,15.926,11.579,25.211c3.81,23.606,14.327,42.516,31.041,57.086c19.699,17.173,48.525,19.87,70.495,5.718
						c17.285-11.135,32.359-29.344,42.846-50.931c13.311-27.397,16.494-58.015,10.443-86.74
						C2689.124,1506.01,2685.682,1516.267,2680.904,1526.102z"/>
				</g>
				<g>
					<path style="fill:#371A45;" d="M2606.966,1659.228c-18.071,0-36.177-6.409-50.537-18.926
						c-19.919-17.366-32.246-39.961-36.633-67.158c-1.006-6.23-3.711-12.114-7.825-17.012l0,0
						c-17.905-21.311-29.048-42.942-34.063-66.125c-5.081-23.496,2.124-47.656,19.272-64.626
						c27.415-27.129,60.281-42.024,92.659-42.024c0.381,0,0.757,0.002,1.14,0.005c29.16,0.317,56.16,12.456,78.083,35.11
						c43.916,45.381,54.797,114.202,27.08,171.252c-11.978,24.648-29.346,45.166-48.911,57.769
						C2635.013,1655.363,2621.002,1659.228,2606.966,1659.228z M2589.837,1417.24c-23.391,0-47.8,11.421-68.823,32.227
						c-8.872,8.782-12.605,21.26-9.985,33.376c3.821,17.661,12.615,34.505,26.885,51.492h0.002
						c8.049,9.585,13.352,21.138,15.332,33.411c3.137,19.443,11.46,34.822,25.447,47.014c14.207,12.38,34.846,14.129,50.188,4.246
						c14.417-9.289,27.48-24.946,36.782-44.092c21.519-44.289,13.098-97.69-20.952-132.878
						c-15.486-16.003-34.194-24.575-54.099-24.79C2590.355,1417.243,2590.096,1417.24,2589.837,1417.24z"/>
				</g>
			</g>
			<g>
				<g>
					<path style="fill:#FFFFFF;" d="M2781.693,2735.286c-30.751,52.776-109.281,90.135-251.049,75.733
						c-45.322-4.616-87.17-26.388-117.159-60.697c-38.037-43.585-64.721-90.432-86.916-138.592
						c-13.766-29.904-44.093-48.625-76.962-47.016c-238.511,11.818-406.54-6.819-430.345-87.89l157.44-208.014l122.453-161.803
						c394.977-6.438,505.104,0,592.656,423.482C2780.465,2570.899,2821.932,2666.244,2781.693,2735.286z"/>
				</g>
				<g>
					<path style="fill:#371A45;" d="M2587.344,2830.961c-18.572,0-38.059-1.016-58.398-3.081
						c-49.666-5.044-95.195-28.628-128.206-66.411c-34.363-39.331-62.815-84.663-89.541-142.661
						c-10.994-23.857-34.856-38.472-60.75-37.153c-284.993,14.116-422.988-16.738-447.458-100.054
						c-1.511-5.156-0.493-10.718,2.749-15l279.907-369.81c3.142-4.155,8.022-6.631,13.232-6.714
						c207.815-3.389,329.839-2.593,420.728,53.008c89.009,54.448,141.736,160.107,187.07,375.747
						c78.376,39.6,122.327,121.455,102.766,193.657C2788.87,2788.437,2707.452,2830.961,2587.344,2830.961z M2253.643,2547.689
						c37.896,0,72.205,21.943,88.333,56.938c25.332,54.971,52.112,97.725,84.282,134.546c27.339,31.289,65.024,50.82,106.113,54.995
						c133.977,13.613,225.32-20.234,244.365-90.537c15.918-58.76-23.621-126.567-91.968-157.739
						c-4.917-2.241-8.469-6.694-9.563-11.987c-43.582-210.825-92.163-312.295-173.279-361.914
						c-81.746-50.005-197.71-51.274-394.243-48.169l-269.294,355.786c27.205,57.412,165.142,80.366,410.383,68.198
						C2250.401,2547.729,2252.027,2547.689,2253.643,2547.689z"/>
				</g>
				<g>
					<path style="fill:#371A45;" d="M2289.361,2590.092c-5.642,0-11.157-2.813-14.373-7.944
						c-44.868-71.592-40.012-166.621,12.983-254.194c61.157-101.06,167.288-163.979,264.224-156.396
						c9.329,0.723,16.304,8.872,15.581,18.198c-0.723,9.336-8.901,16.377-18.203,15.581
						c-84.355-6.445-177.913,49.775-232.612,140.161c-46.23,76.396-51.187,158.135-13.262,218.652
						c4.971,7.93,2.571,18.389-5.359,23.354C2295.545,2589.257,2292.432,2590.092,2289.361,2590.092z"/>
				</g>
				<g>
					<path style="fill:#371A45;" d="M2685.226,2546.093c-41.026-22.088-89.714-17.876-130.49,4.706
						c-7.979,4.223-15.048-7.119-7.704-12.404c31.042-22.655,72.01-37.01,111.677-32.524c13.632,1.34,27.056,4.54,39.898,9.073
						C2720.854,2523.782,2707.006,2556.153,2685.226,2546.093L2685.226,2546.093z"/>
				</g>
				<g style="opacity:0.2;">
					<path style="fill:#371A45;" d="M2781.693,2735.286c-30.751,52.776-109.281,90.135-251.049,75.733
						c-45.322-4.616-87.17-26.388-117.159-60.697c-38.037-43.585-64.721-90.432-86.916-138.592
						c-13.766-29.904-44.093-48.625-76.962-47.016c-238.511,11.818-406.54-6.819-430.345-87.89l157.44-208.014
						c183.108-20.882,365.284,66.458,545.639,360.244c32.107,52.269,85.01,88.991,145.581,98.819
						C2702.613,2733.507,2741.2,2735.328,2781.693,2735.286z"/>
				</g>
			</g>
			<g>
				<g>
					<path style="fill:#FFFFFF;" d="M2050.785,2385.038c-7.582,79.589-66.034,157.567-131.687,208.141
						c-44.474,34.267-92.253,55.953-129.696,56.97c-17.366,0.509-34.266-7.073-44.347-21.221
						c-6.523-9.234-6.523-16.349-0.678-25.625c1.948-3.092,4.32-5.845,6.947-8.302c2.075-1.991,4.278-3.812,6.65-5.464
						c72.049-50.828,140.879-133.677,209.539-218.603L2050.785,2385.038z"/>
				</g>
				<g>
					<path style="fill:#371A45;" d="M1787.801,2667.118c-22.844,0.005-43.862-10.518-56.548-28.403
						c-10.432-14.717-10.815-29.263-1.174-44.478c4.387-6.924,10.476-13.159,18.103-18.545
						c68.921-48.613,134.133-126.318,206.14-215.41c3.853-4.766,9.99-7.08,16.008-6.055l83.301,14.121
						c8.752,1.484,14.875,9.473,14.033,18.311c-6.14,64.492-44.751,134.609-105.928,192.378
						c-56.047,52.92-121.899,86.665-171.86,88.057l0,0C1789.183,2667.108,1788.49,2667.118,1787.801,2667.118z M1789.405,2650.155
						h0.049H1789.405z M1757.02,2615.819c0.02,0,0.264,1.021,1.875,3.296c6.504,9.17,17.661,14.546,30.039,14.102l0,0
						c79.978-2.227,220.767-114.287,242.822-234.209l-57.319-9.717c-71.182,87.876-136.289,164.409-206.719,214.087
						c-3.982,2.813-7.017,5.84-9.016,8.994C1757.227,2614.701,1757.037,2615.712,1757.02,2615.819L1757.02,2615.819z"/>
				</g>
				<g style="opacity:0.2;">
					<path style="fill:#371A45;" d="M2050.785,2385.038c-7.582,79.589-66.034,157.567-131.687,208.141
						c-62.222,7.158-119.615,9.276-167.775,1.821c2.075-1.991,4.278-3.812,6.65-5.464
						c72.049-50.828,140.879-133.677,209.539-218.603L2050.785,2385.038z"/>
				</g>
			</g>
			<g>
				<g>
					<path style="fill:#FFFFFF;" d="M2036.68,2421.761c-6.608,5.76-13.258,11.224-19.908,16.307
						c-231.31,178.237-499.767-12.919-480.707-264.434c1.186-15.926,3.558-32.064,7.158-48.371l302.851-91.702l24.397,49.727
						l97.251,197.975l68.491,139.608L2036.68,2421.761z"/>
				</g>
				<g>
					<path style="fill:#371A45;" d="M1825.711,2525.072c-51.145,0-101.772-13.794-149.001-41.782
						c-121.492-72.002-181.787-217.339-150.034-361.66c1.318-5.986,5.769-10.796,11.638-12.573l302.851-91.694
						c7.952-2.407,16.46,1.299,20.117,8.747l190.606,388.186c3.384,6.885,1.714,15.186-4.07,20.234
						C1979.127,2494.462,1901.859,2525.072,1825.711,2525.072z M1557.798,2138.563c-23.933,126.777,29.998,252.642,136.189,315.576
						c101.03,59.868,220.435,45.952,321.655-36.782l-178.433-363.394L1557.798,2138.563z"/>
				</g>
				<g>
					<path style="fill:#371A45;" d="M1862.996,2034.424c-2.162,95.711-67.48,177.974-143.883,229.386
						c-3.087,2.095-7.288,1.289-9.382-1.798c-1.817-2.677-1.451-6.199,0.693-8.446c30.314-32.518,58.862-65.839,80.313-102.692
						c21.347-36.353,35.011-76.281,38.416-118.144C1831.398,2011.028,1862.879,2012.559,1862.996,2034.424L1862.996,2034.424z"/>
				</g>
			</g>
			<g>
				<g>
					<g>
						<path style="fill:#39A1FF;" d="M2038.205,1278.256l-24.101,40.831c-72.981-157.736-217.841-261.044-403.829-333.22
							c14.401-21.814,32.276-40.154,52.48-54.64c63.239-45.449,148.969-53.369,220.552-13.596
							c46.211,25.71,87.975,58.113,124.995,97.717c1.271,1.313,2.499,2.626,3.727,3.982
							C2076.919,1090.192,2087.042,1195.533,2038.205,1278.256z"/>
					</g>
					<g>
						<path style="fill:#371A45;" d="M2014.093,1336.017c-0.283,0-0.566-0.007-0.85-0.022c-6.292-0.315-11.887-4.092-14.529-9.807
							c-65.02-140.554-194.08-246.709-394.556-324.526c-4.775-1.853-8.455-5.767-10.012-10.645c-1.555-4.88-0.82-10.203,2-14.478
							c64.39-97.622,194.138-130.002,295.388-73.699c49.714,27.642,94.453,62.988,132.974,105.054
							c70.193,76.655,81.558,188.762,28.281,278.967l-24.111,40.828C2025.621,1332.865,2020.064,1336.017,2014.093,1336.017z
							 M1636.993,978.256c184.229,75.073,308.455,175.305,378.34,305.395l8.279-14.021c44.932-76.072,35.022-174.292-24.094-238.85
							c-36.055-39.375-77.927-72.456-124.451-98.325C1795.352,888.126,1694.752,908.712,1636.993,978.256z"/>
					</g>
					<g style="opacity:0.2;">
						<path style="fill:#371A45;" d="M2038.205,1278.256l-24.101,40.831c-72.981-157.736-217.841-261.044-403.829-333.22
							c14.401-21.814,32.276-40.154,52.48-54.64c111.314,39.9,211.318,80.181,255.327,122.411
							c40.366,5.252,67.813-12.241,90.22-38.291c1.271,1.313,2.499,2.626,3.727,3.982
							C2076.919,1090.192,2087.042,1195.533,2038.205,1278.256z"/>
					</g>
				</g>
				<g>
					<g>
						<path style="fill:#FFFFFF;" d="M2096.107,1410.684c29.778,101.789,34.015,211.742,8.648,320.213
							c-5.184,22.117-11.543,44.123-19.189,65.982c-3.688,10.646-7.754,21.292-12.048,31.94
							c-13.11,32.018-28.516,62.417-45.988,91.125c-14.999,24.779-31.577,48.278-49.428,70.423
							c-21.545,26.754-45.078,51.514-70.217,74.202c-9.196,8.244-18.58,16.223-28.15,23.939
							c-175.467,140.859-418.943,186.878-640.976,99.424c-327.104-128.761-483.661-498.337-349.784-825.42
							c25.83-62.978,60.502-119.902,102.108-169.635c4.807-5.858,9.804-11.602,14.913-17.234
							c13.562-15.156,27.76-29.596,42.556-43.285c34.23-31.648,71.639-59.342,111.35-82.741
							c39.674-23.436,81.763-42.614,125.355-57.156c13.858-4.632,27.862-8.812,42.051-12.501
							c21.263-5.516,42.78-10.014,64.626-13.342c108.697-16.871,222.842-6.139,331.801,36.782
							C1911.902,1077.458,2043.594,1231.198,2096.107,1410.684z"/>
						<path style="fill:#371A45;" d="M1472.21,2233.471c-79.131,0-158.489-14.531-233.958-44.258
							c-157.91-62.158-281.436-181.995-347.82-337.427c-66.914-156.677-67.886-330.623-2.734-489.797
							c25.459-62.073,59.888-119.27,102.327-169.997c4.609-5.615,9.502-11.27,14.951-17.278
							c13.506-15.098,27.854-29.69,42.639-43.369c33.97-31.406,71.511-59.304,111.585-82.917
							c39.675-23.433,81.938-42.703,125.62-57.275c14.043-4.692,28.22-8.906,42.141-12.527
							c21.704-5.632,43.494-10.129,64.766-13.369c112.129-17.41,227.112-4.658,332.512,36.86
							c182.261,71.733,318.284,220.51,373.191,408.181l0,0c30.437,104.041,33.435,215.012,8.669,320.916
							c-5.256,22.417-11.726,44.663-19.231,66.121c-3.423,9.88-7.371,20.349-12.07,32.002
							c-12.952,31.631-28.457,62.354-46.091,91.326c-14.714,24.311-31.382,48.054-49.531,70.569
							c-21.223,26.355-44.898,51.375-70.369,74.365c-9.158,8.208-18.647,16.274-28.208,23.984
							C1762.798,2184.145,1617.93,2233.471,1472.21,2233.471z M1489.886,960.443c-32.62,0-65.296,2.5-97.739,7.537
							c-21.184,3.228-42.881,7.708-64.492,13.315c-13.86,3.604-27.976,7.798-41.96,12.473
							c-43.499,14.509-85.583,33.699-125.093,57.034c-39.905,23.516-77.29,51.294-111.113,82.568
							c-14.719,13.618-29.009,28.149-42.463,43.191c-5.425,5.979-10.288,11.599-14.876,17.188
							c-42.266,50.522-76.548,107.476-101.897,169.285c-64.871,158.486-63.906,331.677,2.717,487.668
							c66.091,154.751,189.075,274.058,346.294,335.942c213.523,84.102,458.608,46.089,639.607-99.214
							c9.522-7.676,18.975-15.713,28.093-23.887c25.356-22.888,48.931-47.8,70.063-74.043
							c18.074-22.419,34.668-46.062,49.324-70.271c17.559-28.85,32.998-59.443,45.891-90.933c4.68-11.604,8.613-22.031,12.021-31.87
							c7.476-21.372,13.916-43.523,19.15-65.845c24.658-105.44,21.672-215.925-8.63-319.509
							c-54.666-186.848-190.093-334.973-371.555-406.392C1648.778,975.353,1569.52,960.443,1489.886,960.443z"/>
					</g>
					<g>
						<path style="fill:#D8D8D8;" d="M1238.75,2187.917c222.034,87.486,465.542,41.454,640.984-99.43
							c9.581-7.704,18.96-15.676,28.135-23.917c25.157-22.683,48.667-47.455,70.228-74.189
							c17.837-22.163,34.437-45.658,49.427-70.417c17.492-28.715,32.886-59.106,46.013-91.142
							c4.252-10.655,8.335-21.283,12.051-31.93c7.637-21.871,13.957-43.887,19.158-66c25.365-108.472,21.16-218.418-8.644-320.226
							c-16.348-55.92-40.407-109.376-71.462-158.677c26.187,97.812,28.899,202.629,4.704,306.115
							c-5.148,22.135-11.521,44.13-19.158,66c-3.678,10.631-7.761,21.259-12.051,31.93c-13.128,32.036-28.522,62.426-45.975,91.127
							c-15.029,24.774-31.591,48.254-49.428,70.416c-21.561,26.733-45.109,51.523-70.227,74.19
							c-9.214,8.256-18.593,16.228-28.174,23.933c-175.442,140.884-418.912,186.9-640.984,99.43
							c-129.561-50.99-232.323-139.792-300.902-248.714C912.022,1952.011,1045.674,2111.932,1238.75,2187.917z"/>
					</g>
					<g>
						<path style="fill:#371A45;" d="M1472.2,2242.709c-80.264,0-160.784-14.746-237.334-44.897
							c-160.227-63.071-285.569-184.67-352.932-342.395c-67.893-158.97-68.884-335.447-2.788-496.929
							c25.823-62.959,60.742-120.969,103.792-172.427c4.651-5.669,9.641-11.436,15.193-17.556
							c13.66-15.266,28.213-30.068,43.21-43.943c34.453-31.855,72.527-60.149,113.169-84.097
							c40.225-23.76,83.088-43.303,127.388-58.079c14.233-4.758,28.616-9.033,42.739-12.705
							c22.012-5.713,44.114-10.276,65.698-13.562c113.726-17.654,230.366-4.724,337.29,37.397
							c184.936,72.788,322.959,223.752,378.674,414.187l0,0c30.884,105.566,33.926,218.159,8.799,325.613
							c-5.332,22.739-11.895,45.3-19.507,67.068c-3.464,10-7.466,20.61-12.224,32.407c-13.154,32.124-28.882,63.286-46.765,92.671
							c-14.92,24.646-31.824,48.733-50.234,71.567c-21.524,26.731-45.537,52.107-71.37,75.42
							c-9.299,8.34-18.914,16.514-28.599,24.321C1766.917,2192.689,1620.006,2242.709,1472.2,2242.709z M1489.886,969.684
							c-32.146,0-64.348,2.463-96.323,7.427c-20.896,3.184-42.28,7.6-63.586,13.128c-13.655,3.55-27.568,7.686-41.353,12.295
							c-42.886,14.304-84.375,33.22-123.323,56.226c-39.348,23.186-76.199,50.569-109.539,81.396
							c-14.507,13.421-28.589,27.742-41.851,42.566c-5.364,5.913-10.129,11.421-14.622,16.892
							c-41.711,49.858-75.498,105.996-100.491,166.929c-63.923,156.172-62.976,326.831,2.669,480.532
							c65.112,152.456,186.279,270,341.179,330.972c210.452,82.9,452.017,45.41,630.439-97.822
							c9.38-7.563,18.708-15.493,27.71-23.562c24.971-22.539,48.208-47.095,69.033-72.957c17.82-22.104,34.175-45.405,48.616-69.263
							c17.317-28.452,32.537-58.608,45.247-89.646c4.602-11.416,8.481-21.702,11.841-31.394
							c7.375-21.089,13.726-42.925,18.884-64.929c24.292-103.882,21.35-212.751-8.503-314.807l0,0
							c-53.857-184.084-187.285-330.02-366.069-400.386C1646.473,984.376,1568.365,969.684,1489.886,969.684z"/>
					</g>
					<g>
						<path style="fill:#371A45;" d="M1472.193,2249.027c-81.052,0-162.339-14.883-239.644-45.337
							c-161.814-63.691-288.398-186.499-356.431-345.791c-68.562-160.537-69.565-338.748-2.825-501.807
							c26.072-63.564,61.328-122.131,104.792-174.089c4.68-5.703,9.739-11.548,15.361-17.747
							c13.76-15.381,28.457-30.327,43.599-44.336c34.785-32.163,73.225-60.728,114.253-84.902
							c40.603-23.984,83.874-43.713,128.596-58.63c14.368-4.802,28.887-9.119,43.149-12.825
							c22.224-5.769,44.541-10.376,66.338-13.696c114.812-17.822,232.59-4.763,340.559,37.766
							c186.768,73.508,326.157,225.972,382.427,418.293l0,0c31.189,106.611,34.26,220.317,8.884,328.828
							c-5.383,22.961-12.007,45.74-19.692,67.717c-3.494,10.083-7.532,20.789-12.329,32.683
							c-13.293,32.466-29.172,63.926-47.229,93.596c-15.056,24.873-32.124,49.192-50.71,72.249
							c-21.733,26.987-45.979,52.607-72.056,76.147c-9.399,8.423-19.097,16.67-28.87,24.546
							C1769.747,2198.529,1621.409,2249.027,1472.193,2249.027z M1489.888,976.007c-31.824,0-63.704,2.439-95.357,7.353
							c-20.701,3.152-41.87,7.524-62.969,12.998c-13.511,3.513-27.288,7.607-40.935,12.17
							c-42.466,14.165-83.547,32.896-122.112,55.674c-38.965,22.961-75.452,50.073-108.462,80.593
							c-14.36,13.286-28.301,27.466-41.431,42.141c-5.322,5.867-10.022,11.296-14.446,16.687
							c-41.331,49.407-74.783,104.985-99.526,165.315c-63.276,154.592-62.344,323.518,2.632,475.649
							c64.443,150.891,184.365,267.227,337.681,327.573c208.345,82.065,447.51,44.946,624.165-96.87
							c9.285-7.485,18.528-15.347,27.446-23.337c24.709-22.302,47.712-46.614,68.33-72.217
							c17.644-21.885,33.835-44.954,48.13-68.569c17.153-28.184,32.219-58.037,44.805-88.77
							c4.551-11.284,8.394-21.475,11.719-31.067c7.307-20.896,13.594-42.515,18.704-64.302
							c24.043-102.817,21.13-210.578-8.416-311.587h-0.002c-53.303-182.197-185.364-326.636-362.317-396.279
							C1644.896,990.551,1567.576,976.007,1489.888,976.007z"/>
					</g>
					<g>
						<path style="fill:#371A45;" d="M2121.185,1571.523c-82.973,448.461-577.262,679.052-913.973,382.189
							c-229.078-201.968-204.055-583.694,8.072-792.76c154.389-152.161,371.13-234.437,670.838-63.86
							c0,0,120.672,96.051,163.13,197.668s66.41,207.806,66.41,207.806L2121.185,1571.523z"/>
					</g>
					<g>
						<path style="fill:#220F2D;" d="M1207.227,1953.702c336.695,296.864,830.989,66.259,913.973-382.17l-1.134-13.979
							c-242.017,343.506-708.145,461.995-1054.281,168.221C1090.024,1811.946,1136.544,1891.363,1207.227,1953.702z"/>
					</g>
					<g>
						<path style="fill:#371A45;" d="M1544.827,2170.849c-143.618,0-278.987-52.764-393.855-154.019
							c-116.055-102.312-182.532-250.833-187.185-418.198c-5.166-185.842,67.937-371.882,195.554-497.659
							c70.901-69.88,147.156-120.42,226.646-150.22l1.628-0.61l1.721-0.268c114.854-17.815,232.639-4.771,340.606,37.759
							c186.768,73.508,326.157,225.972,382.427,418.293l0,0c31.189,106.611,34.26,220.317,8.884,328.828
							c-5.383,22.961-12.007,45.74-19.692,67.717c-3.494,10.083-7.532,20.789-12.329,32.683
							c-13.293,32.466-29.172,63.926-47.229,93.596l-1.546,2.144c-117.871,139.128-282.766,226.013-452.407,238.372
							C1573.575,2170.321,1559.151,2170.849,1544.827,2170.849z M1396.256,983.095c-74.429,28.201-146.123,75.972-213.13,142.014
							c-121.042,119.297-190.376,295.962-185.466,472.581c4.39,157.869,66.794,297.693,175.72,393.721
							c119.343,105.195,261.863,155.024,412.209,144.063c160.208-11.675,316.194-93.835,428.157-225.471
							c16.846-27.815,31.68-57.283,44.094-87.602c4.551-11.284,8.394-21.475,11.719-31.067
							c7.307-20.896,13.594-42.515,18.704-64.302c24.043-102.817,21.13-210.578-8.416-311.587h-0.002
							c-53.303-182.197-185.364-326.636-362.317-396.279C1615.682,979.044,1504.644,966.591,1396.256,983.095z"/>
					</g>
					<g style="opacity:0.5;">
						<path style="fill:#FFFFFF;" d="M1194.143,1363.19c0,0,212.965-185.023,436.028-180.447c0.234,0.005,0.469,0.01,0.703,0.015
							c46.946,1.003,92.603,14.638,132.277,39.116c52.467,32.371,83.751,62.388,110.252,89.884
							c80.558,83.659,102.366,138.064,102.366,138.064c5.903-90.429-15.106-166.657-81.503-237.011
							c-6.564-6.918-13.593-13.807-21.035-20.649c-1.709-1.583-3.439-3.112-5.206-4.628c0.022-0.051-0.03-0.072-0.119-0.077
							c-16.068-12.789-37.831-28.795-63.924-44.788c-78.667-48.284-196.575-96.673-316.163-57.26
							C1264.211,1159.104,1178.711,1361.147,1194.143,1363.19z"/>
					</g>
					<g style="opacity:0.5;">
						
							<ellipse transform="matrix(0.881 -0.4731 0.4731 0.881 -662.3315 787.0298)" style="fill:#FFFFFF;" cx="1233.421" cy="1710.206" rx="85.923" ry="98.699"/>
					</g>
					<g style="opacity:0.5;">
						
							<ellipse transform="matrix(0.9212 -0.3892 0.3892 0.9212 -622.7556 660.8082)" style="fill:#FFFFFF;" cx="1319.6" cy="1867.462" rx="35.467" ry="40.771"/>
					</g>
				</g>
				<g>
					<g>
						<path style="fill:#787A75;" d="M929.051,1894.746c-155.797-175.653-183.156-367.801-87.944-576.378l111.24-27.532
							c-86.185,177.16-65.889,358.169,54.072,542.782L929.051,1894.746z"/>
					</g>
					<g style="opacity:0.6;">
						<path style="fill:#FFFFFF;" d="M868.225,1318.368l58.431-16.577c1.47-3.652,2.918-7.306,4.467-10.955l-97.05,27.532
							c-83.066,208.578-59.198,400.725,76.725,576.378l20.369-18.447C807.526,1705.663,788.057,1519.67,868.225,1318.368z"/>
					</g>
					<g>
						<path style="fill:#371A45;" d="M929.058,1911.691c-4.69,0-9.346-1.938-12.683-5.701
							c-158.645-178.867-189.155-378.938-90.681-594.658c2.146-4.702,6.323-8.169,11.343-9.409l111.24-27.532
							c6.384-1.587,13.103,0.676,17.241,5.789c4.136,5.112,4.941,12.156,2.063,18.069
							c-82.056,168.674-64.209,345.691,53.044,526.138c4.768,7.336,3.164,17.1-3.704,22.524l-77.368,61.13
							C936.453,1910.492,932.745,1911.691,929.058,1911.691z M853.177,1332.836c-87.52,197.402-61.97,373.821,78.061,538.591
							l52.666-41.614c-109.548-175.256-130.117-348.008-61.304-514.16L853.177,1332.836z"/>
					</g>
					<g>
						<path style="fill:#371A45;" d="M871.266,1385.925c-24.062,99.133-20.878,203.107,14.411,299.001
							c11.19,31.927,25.149,63.012,40.288,93.964c3.292,6.693-6.156,12.711-10.756,6.594
							c-86.25-112.819-111.314-271.534-55.955-403.369C862.197,1375.129,872.936,1378.367,871.266,1385.925L871.266,1385.925z"/>
					</g>
				</g>
				<g>
					<g>
						<path style="fill:#39A1FF;" d="M771.625,1475.794c41.814-62.124,92.643-96.01,152.484-101.656
							c155.435-288.801,320.533-403.421,491.338-415.128h7.059C1178.25,846.09,761.742,1172.237,771.625,1475.794z"/>
					</g>
					<g style="opacity:0.6;">
						<path style="fill:#FFFFFF;" d="M1421.766,959.009h0.741c-244.257-112.919-660.765,213.228-650.882,516.784
							c11.541-17.147,23.795-32.062,36.71-44.907C845.365,1159.395,1191.166,893.123,1421.766,959.009z"/>
					</g>
					<g style="opacity:0.2;">
						<path style="fill:#371A45;" d="M1276.833,938.137c-130.772,47.384-257.559,166.628-378.496,391.33
							c-44.451,4.194-83.918,24.003-118.422,59.36c-6.28,28.928-9.231,58.049-8.29,86.966
							c41.815-62.124,92.643-96.01,152.484-101.656c155.436-288.801,320.533-403.421,491.339-415.128h7.059
							C1378.396,938.617,1328.654,932.609,1276.833,938.137z"/>
					</g>
					<g>
						<path style="fill:#371A45;" d="M771.624,1492.738c-1.558,0-3.132-0.215-4.68-0.659c-7.065-2.031-12.014-8.386-12.254-15.732
							c-6.047-185.745,138.789-366.643,285.015-463.525c138.862-92.004,284.631-117.864,389.912-69.19
							c7.222,3.337,11.147,11.25,9.438,19.019c-1.709,7.768-8.594,13.303-16.548,13.303h-6.475
							c-180.667,12.634-336.697,145.515-477.004,406.213c-2.685,4.988-7.688,8.306-13.328,8.838
							c-55.027,5.193-100.83,36.023-140.022,94.25C782.476,1490.016,777.161,1492.738,771.624,1492.738z M1312.508,953.244
							c-77.827,0-166.97,30.105-254.087,87.825c-124.761,82.664-248.491,228.818-267.51,383.345
							c35.598-37.468,76.614-59.617,122.485-66.072c125.591-230.593,265.01-363.621,424.18-404.016
							C1329.366,953.602,1321.004,953.244,1312.508,953.244z"/>
					</g>
					<g>
						<path style="fill:#371A45;" d="M1077.813,1028.15c-82.445,78.441-158.312,169.095-191.148,279.878
							c-2.374,7.864-14.442,4.929-12.648-3.324c13.3-57.544,38.526-112.056,70.166-161.879
							c31.681-49.943,69.484-95.586,109.573-138.539c6.388-6.844,17.114-7.214,23.958-0.826
							C1084.846,1010.069,1084.885,1021.482,1077.813,1028.15L1077.813,1028.15z"/>
					</g>
				</g>
				<g>
					<g>
						<path style="fill:#787A75;" d="M960.413,2166.642c106.288,109.159,260.99,137.276,345.546,62.757
							c84.556-74.519,66.927-223.425-39.361-332.584c-0.652-0.696-1.379-1.403-2.074-2.068
							c-106.195-107.452-259.517-134.692-343.472-60.689c-65.324,57.563-69.657,159.523-19.271,253.253
							C916.63,2114.898,936.244,2141.816,960.413,2166.642z"/>
					</g>
					<g style="opacity:0.6;">
						<path style="fill:#FFFFFF;" d="M939.405,1868.718c83.955-74.003,237.277-46.763,343.472,60.689
							c0.695,0.665,1.421,1.372,2.073,2.068c19.702,20.235,36.341,41.839,49.865,64.078c-15.564-34.361-38.399-68.113-68.218-98.738
							c-0.652-0.696-1.379-1.403-2.073-2.068c-106.195-107.451-259.517-134.692-343.472-60.689
							c-65.324,57.564-69.657,159.524-19.272,253.253c2.724,5.06,5.663,10.086,8.705,15.092
							C870.668,2014.335,878.603,1922.297,939.405,1868.718z"/>
					</g>
					<g style="opacity:0.4;">
						<path style="fill:#371A45;" d="M960.413,2166.642c106.288,109.159,260.99,137.276,345.546,62.757
							c84.556-74.519,66.927-223.425-39.361-332.584c-0.652-0.696-1.379-1.403-2.074-2.068c1.611,19.394-2.115,43.176-25.338,56.734
							c-40.687,23.73-170.647,7.835-170.647,7.835s-72.678,55.036-166.759,127.995
							C916.63,2114.898,936.244,2141.816,960.413,2166.642z"/>
					</g>
					<g>
						<path style="fill:#371A45;" d="M1186.629,2287.685c-79.744,0-169.148-38.115-238.369-109.204l0,0
							c-64.895-66.65-100.422-149.116-97.478-226.252c2.039-53.362,22.456-98.616,59.05-130.864
							c91.079-80.281,256.568-51.743,368.892,63.621c64.893,66.648,100.422,149.114,97.476,226.25
							c-2.038,53.364-22.456,98.613-59.05,130.864C1282.198,2272.904,1236.285,2287.685,1186.629,2287.685z M972.537,2154.838
							c99.924,102.627,244.463,130.356,322.21,61.841c29.46-25.967,45.918-62.876,47.593-106.738
							c2.554-66.909-30.303-142.168-87.893-201.318c-99.919-102.62-244.468-130.354-322.21-61.838
							c-29.463,25.964-45.92,62.874-47.595,106.738C882.088,2020.426,914.952,2095.692,972.537,2154.838L972.537,2154.838z"/>
					</g>
					<g>
						
							<ellipse transform="matrix(0.6463 -0.7631 0.7631 0.6463 -1228.9313 1562.6235)" style="fill:#39A1FF;" cx="1071.207" cy="2107.016" rx="174.113" ry="219.319"/>
					</g>
					<g style="opacity:0.6;">
						<path style="fill:#FFFFFF;" d="M890.485,2039.01c32.889-92.819,145.817-124.425,252.23-70.596
							c54.117,27.375,96.087,71.586,119.982,120.626c-19.779-60.43-67.158-117.316-131.939-150.087
							c-106.413-53.829-219.341-22.223-252.231,70.595c-16.163,45.615-9.947,97.513,13.144,144.903
							C878.962,2115.616,877.619,2075.322,890.485,2039.01z"/>
					</g>
					<g style="opacity:0.2;">
						<path style="fill:#371A45;" d="M1251.547,2057.873c-20.435-36.215-51.506-66.321-87.637-87.958
							c39.201,86.943,1.267,173.867-90.275,199.242c-59.147,16.42-127.086,3.307-182.975-30.205
							c2.435,5.502,5.276,11.019,8.364,16.518c52.083,92.191,173.219,145.085,270.573,118.12
							C1266.95,2246.625,1303.591,2150.021,1251.547,2057.873z"/>
					</g>
					<g>
						<path style="fill:#371A45;" d="M1118.431,2319.076c-65.955,0.005-138.618-30.654-194.507-88.35
							c-52.261-53.95-80.869-121.621-78.491-185.662c1.736-46.709,19.673-86.538,51.873-115.181
							c77.83-69.246,216.453-47.842,309.014,47.71c52.261,53.953,80.871,121.624,78.491,185.667
							c-1.736,46.704-19.673,86.533-51.873,115.176C1202.103,2305.868,1161.705,2319.071,1118.431,2319.076z M1012.091,1922.733
							c-35.151,0-67.598,10.525-92.263,32.468c-25.132,22.356-39.148,53.865-40.532,91.12
							c-2.039,54.859,23.101,113.477,68.97,160.83l0,0c80.095,82.686,197.695,103.306,262.151,45.967
							c25.132-22.358,39.148-53.867,40.532-91.118c2.038-54.858-23.098-113.479-68.97-160.833
							C1132.535,1950.126,1068.795,1922.733,1012.091,1922.733z"/>
					</g>
					<g>
						
							<ellipse transform="matrix(0.6463 -0.7631 0.7631 0.6463 -1303.4364 1537.0984)" style="fill:#371A45;" cx="1006.419" cy="2174.625" rx="84.365" ry="156.63"/>
					</g>
				</g>
			</g>
			<g>
				<g>
					<path style="fill:#FFFFFF;" d="M2231.521,1975.957c3.135,4.066,5.252,8.471,6.354,13.088
						c6.904,28.887-24.186,67.474-67.051,105.172c-12.58,142.869-56.589,252.743-134.61,326.656
						c-6.269,6.014-12.749,11.733-19.442,17.197c-24.609-7.624-80.774-28.802-124.105-83.866c-0.551-0.678-1.059-1.313-1.567-1.991
						c-77.682-100.978-42.823-223.771-38.672-237.536c6.015-10.462,12.029-20.924,18.044-31.386
						c47.651-82.807,95.303-165.615,142.954-248.465c11.309-19.611,27.066-36.299,46-48.71
						c51.209-33.546,153.289-98.013,181.922-98.31c18.468-0.17,26.346,8.514,26.346,8.514c16.265,24.948-1.016,44.602-28.845,62.561
						C2338.006,1752.143,2370.24,1917.716,2231.521,1975.957z"/>
				</g>
				<g>
					<path style="fill:#371A45;" d="M2016.766,2455.028c-1.677,0-3.367-0.249-5.012-0.762
						c-38.013-11.772-92.126-37.246-134.063-91.738c-80.52-104.624-48.684-228.896-41.484-252.749
						c0.376-1.24,0.889-2.432,1.536-3.55l161.006-279.844c12.542-21.804,30.32-40.632,51.409-54.451
						c153.679-100.71,181.797-100.986,191.035-101.077c0.247-0.002,0.493-0.005,0.735-0.005c24.348,0,36.199,11.741,38.345,14.116
						c0.598,0.659,1.14,1.365,1.626,2.112c8.013,12.302,10.715,24.902,8.037,37.449c-1.868,8.753-6.282,16.538-11.904,23.381
						c29.292,11.309,51.714,37.495,60.11,72.937c12.502,52.773-9.131,124.021-83.936,163.157
						c8.242,31.021-14.236,70.718-67.136,118.406c-15.037,157.241-68.708,274.561-159.583,348.794
						C2024.422,2453.71,2020.623,2455.028,2016.766,2455.028z M1868.118,2121.381c-5.562,19.482-32.874,130.435,36.428,220.483
						c33.445,43.457,76.021,65.791,108.552,77.173c80.532-69.658,127.898-179.38,140.833-326.318
						c0.381-4.341,2.419-8.364,5.691-11.24c49.985-43.948,71.311-78.628,58.508-95.142c-3.228-4.163-4.333-9.592-2.996-14.685
						c1.338-5.095,4.971-9.277,9.829-11.318c69.99-29.385,90.713-87.305,80.203-131.672c-6.162-26.011-26.899-55.454-65.188-52.878
						c-7.793,0.53-14.795-4.236-17.229-11.567c-2.432-7.334,0.403-15.383,6.895-19.573c20.466-13.206,26.062-22.073,27.153-27.185
						c0.415-1.946,0.596-5.002-2.065-9.844c-1.77-1.064-6.062-2.844-13.21-2.873c-12.646,0.125-65.493,25.22-172.793,95.537
						c-16.663,10.918-30.706,25.789-40.608,43.005L1868.118,2121.381z"/>
				</g>
				<g>
					<path style="fill:#371A45;" d="M2242.904,1775.324l-105.326,14.46c-6.671,0.885-9.034-8.674-2.719-10.984
						c0,0,99.898-36.368,99.898-36.368c8.843-3.219,18.621,1.34,21.84,10.182
						C2260.389,1762.643,2253.512,1773.978,2242.904,1775.324L2242.904,1775.324z"/>
				</g>
				<g>
					<path style="fill:#371A45;" d="M2199.754,1999.264c-12.72,0-25.432-2.524-38.062-7.578
						c-8.687-3.474-12.913-13.335-9.436-22.024c3.474-8.689,13.33-12.917,22.024-9.436c17.139,6.856,33.801,6.856,50.95,0
						c8.691-3.474,18.547,0.75,22.021,9.439c3.477,8.686-0.75,18.547-9.438,22.021
						C2225.189,1996.737,2212.469,1999.264,2199.754,1999.264z"/>
				</g>
				<g>
					<path style="fill:#371A45;" d="M2097.407,2001.981c48.285-36.498,58.11-41.823,58.409-104.862
						c0.016-4.134,3.485-7.475,7.628-7.257c2.695,0.134,4.978,1.731,6.119,3.975c5.826,11.525,9.735,24.189,10.78,37.95
						c3.225,28.829-14.925,59.329-41.476,70.607c-12.359,5.735-24.987,8.594-37.963,8.954
						C2095.999,2011.645,2093.549,2004.921,2097.407,2001.981L2097.407,2001.981z"/>
				</g>
				<g style="opacity:0.2;">
					<path style="fill:#371A45;" d="M2170.824,2094.216c-12.58,142.869-56.589,252.743-134.61,326.656l0.466,0.889
						c-6.608,5.76-13.258,11.224-19.908,16.307c-103.948,79.454-216.978,68.392-216.978,68.392
						c-120.06-11.889-188.964-99.538-202.283-117.289c-47.437-63.218-56.84-128.736-59.229-158.015
						c25.87-0.833,55.998-3.894,88.949-11.295c66.349-14.902,117.726-41.466,152.484-63.535
						c14.411-10.354,28.821-20.708,43.232-31.062c-38.714,41.679-74.887,83.824-87.805,130.12
						c-10.801,38.503,7.37,78.826,43.246,96.574c44.39,22.025,81.621,19.78,114.278,2.245
						c27.871-14.952,52.353-41.129,75.056-72.939c74.209-103.943,129.146-268.16,219.789-298.954l50.362,6.734
						C2244.779,2017.932,2213.689,2056.519,2170.824,2094.216z"/>
				</g>
			</g>
		</g>
		<g>
			<path style="fill:#371A45;" d="M2366.732,2990.826c26.636,26.202,17.151,59.548-12.495,78.542
				c-24.593,16.148-51.953,22.797-78.828,26.975c-80.187,10.366-165.99-1.923-237.489-41.074
				c-70.957-38.792-81.073-106.731,6.105-131.28c26.746-7.205,53.691-8.956,80.204-7.725c3.126,0.144,5.542,2.797,5.397,5.922
				c-0.129,2.803-2.274,5.034-4.968,5.363c-35.447,4.953-94.04,13.671-113.197,45.385c-10.778,23.305,23.393,44.332,41.88,54.598
				c66.392,32.902,145.05,43.706,218.581,38.873c29.102-2.732,79.154-9.35,92.231-38.11c3.572-8.734,0.389-20.201-6.222-30.397
				C2354.234,2992.194,2362.067,2986.073,2366.732,2990.826L2366.732,2990.826z"/>
		</g>
		<g>
			<path style="fill:#371A45;" d="M3123.617,1905.003c21.5-24.133,58.142-16.523,72.533,11.452
				c19.039,36.281,8.62,80.987-17.473,110.655c-32.725,37.587-89.135,28.231-91.251-25.957c-0.219-6.222,8.615-8.071,10.979-2.447
				c4.151,9.552,9.99,18.036,16.924,22.078c15.199,8.513,29.282-1.997,39.102-14.442c23.254-26.298,31.936-111.388-24.362-92.068
				C3124.463,1916.661,3119.485,1909.336,3123.617,1905.003L3123.617,1905.003z"/>
		</g>
		<g>
			<path style="fill:#371A45;" d="M3198.488,2267.402c12.28,90.467-31.312,199.948-98.591,261.558
				c-25.919,23.369-64.864,44.29-100.995,29.977c-36.449-14.358-49.076-57.682-50.142-92.507
				c-1.822-64.855,21.011-128.086,55.134-182.317c17.283-26.59,37.99-51.377,63.636-70.359c5.588-4.076,12.32,3.797,7.282,8.634
				c-51.939,53.3-83.109,126.029-92.99,199.145c-3.682,33.404-4.721,89.995,29.442,106.077c22.544,8.188,48.555-8.458,66.699-23.785
				c43.402-38.27,73.898-92.922,92.683-147.789c9.511-28.272,15.826-57.796,16.578-87.801
				C3187.232,2261.446,3197.439,2260.571,3198.488,2267.402L3198.488,2267.402z"/>
		</g>
		<g>
			<path style="fill:#371A45;" d="M1102.014,2380.317c83.247,37.483,153.044,132.43,169.685,222.127
				c8.928,44.746-2.843,104.54-56.278,113.316c-85.424,10.684-170.046-91.811-202.262-161.515
				c-13.407-28.742-23.469-59.431-25.994-91.239c-0.429-6.95,9.651-8.461,11.181-1.605c17.714,72.282,62.91,137.231,119.703,184.329
				c26.386,20.808,73.847,51.655,105.576,31.188c18.883-14.791,18.534-45.667,15.139-69.177
				c-9.485-57.082-39.701-111.889-76.3-156.875c-18.948-23.037-40.65-44.026-65.705-60.552
				C1091,2386.714,1095.666,2377.59,1102.014,2380.317L1102.014,2380.317z"/>
		</g>
		<g>
			<path style="fill:#371A45;" d="M1545.911,2825.84c25.362-0.429,49.189,21.872,50.569,48.239
				c2.917,34.737-26.808,64.725-60.066,68.589c-33.186,5.207-70.315-19.126-70.304-54.413c-0.076-13.05,4.79-25.312,12.833-33.753
				c2.205-2.314,5.867-2.402,8.181-0.198c1.596,1.521,2.133,3.734,1.59,5.721c-4.965,16.326-1.055,33.485,12.269,42.822
				c23.028,17.442,63.996,0.973,66.569-28.239c1.798-16.228-9.017-30.434-24.297-37.866
				C1537.907,2834.103,1540.049,2825.711,1545.911,2825.84L1545.911,2825.84z"/>
		</g>
		<g>
			<path style="fill:#371A45;" d="M804.504,1866.155c35.477,4.977,55.334,48.248,41.836,80.659
				c-8.821,25.279-40.406,40.268-65.813,29.685c-33.529-12.388-49.802-57.193-29.18-86.308c3.543-4.874,11.452-1.39,10.388,4.437
				c-1.823,16.597,4.461,31.609,13.842,41.293c20.583,21.136,45.677,7.727,44.908-20.651c-0.271-13.853-6.645-28.924-20.08-38.715
				C795.633,1873.279,798.892,1865.306,804.504,1866.155L804.504,1866.155z"/>
		</g>
	</g>
</g>
</svg>
